<svg width="172" height="41" viewBox="0 0 172 41" fill="none" xmlns="http://www.w3.org/2000/svg">
<path d="M10.9127 26.1065C10.045 25.7394 8.92705 25.5559 7.55879 25.5559C6.79123 25.5559 6.32402 25.656 6.15716 25.8562C5.95693 26.0231 5.85681 26.5237 5.85681 27.358C5.85681 28.3925 5.97361 29.5272 6.20722 30.7619C6.40745 31.9967 6.64106 32.7476 6.90803 33.0146C7.00815 33.1147 7.14164 33.1647 7.3085 33.1647C7.80908 33.1647 8.49321 32.8644 9.36088 32.2637C10.2286 31.6296 10.8626 30.9789 11.2631 30.3114C11.8972 29.1768 12.2142 28.3091 12.2142 27.7084C12.2142 27.0409 11.7804 26.507 10.9127 26.1065ZM8.8603 8.38591C7.65891 7.41812 6.77454 6.88417 6.20722 6.78405C5.97361 6.71731 5.62321 6.63388 5.156 6.53376C5.156 7.03434 5.156 8.05219 5.156 9.58731C5.156 15.027 5.48972 17.7468 6.15716 17.7468C6.45751 17.7468 7.05821 17.2128 7.95925 16.1449C8.8603 15.0437 9.54443 14.0592 10.0116 13.1915C10.4455 12.4239 10.6624 11.7565 10.6624 11.1892C10.6624 10.3215 10.0617 9.38708 8.8603 8.38591ZM0.750873 1.47788C1.25146 0.910555 1.86884 0.626892 2.60303 0.626892C3.87117 0.626892 6.32402 1.8116 9.96158 4.18102C12.3977 5.78289 14.033 6.95091 14.8673 7.6851C15.7016 8.45266 16.1187 9.18685 16.1187 9.88766C16.1187 10.188 16.0353 10.6052 15.8685 11.1391C15.5681 12.0068 14.9173 13.2582 13.9162 14.8935C12.8816 16.5621 11.9139 17.9137 11.0128 18.9482C10.1785 19.9494 9.76135 20.6168 9.76135 20.9505C9.76135 21.0173 9.77804 21.0673 9.81141 21.1007C9.9449 21.2342 10.7792 21.5179 12.3143 21.9517C13.6492 22.2854 14.6504 22.6692 15.3178 23.103C15.9853 23.5702 16.6861 24.2877 17.4203 25.2555C18.1211 26.2901 18.4715 27.2912 18.4715 28.259C18.4715 30.1946 16.8362 32.2971 13.5658 34.5664C12.2976 35.4007 10.2619 36.4686 7.45867 37.7701C4.65541 39.0382 2.95343 39.6723 2.35274 39.6723C1.25146 39.6723 0.700815 39.0716 0.700815 37.8702C0.700815 37.2361 0.884362 36.6021 1.25146 35.968C1.61855 35.3339 1.8021 33.5986 1.8021 30.7619C1.8021 30.5951 1.8021 30.3448 1.8021 30.0111C1.8021 26.1399 1.65192 21.6347 1.35157 16.4953C1.05122 11.3894 0.767559 8.18568 0.500582 6.88417C0.166861 5.31568 0 4.16434 0 3.43015C0 2.69596 0.250291 2.04521 0.750873 1.47788Z" fill="#FFEED6"/>
<path d="M19.5227 1.97846C19.7229 1.41114 20.2569 1.12747 21.1246 1.12747C21.9922 1.12747 22.6931 1.41114 23.227 1.97846C23.3939 2.14532 23.5274 2.31219 23.6275 2.47905C23.7276 2.61253 23.7943 2.8962 23.8277 3.33004C23.8945 3.79725 23.9278 4.46469 23.9278 5.33236C23.9278 5.86632 23.9111 6.51707 23.8778 7.28463C23.8778 8.05219 23.8611 9.13679 23.8277 10.5384C23.8277 11.94 23.7776 13.1915 23.6775 14.2928C23.5107 20.3665 23.4272 24.3879 23.4272 26.3568C23.4272 26.5237 23.4272 26.7573 23.4272 27.0576C23.4606 29.5605 24.662 31.6964 27.0314 33.4651C28.5999 34.5997 29.3842 35.5842 29.3842 36.4185C29.3842 36.8523 29.1672 37.2528 28.7334 37.6199C28.1661 38.0537 27.5153 38.2707 26.7811 38.2707C25.1459 38.2707 23.5107 37.453 21.8754 35.8178C20.7074 34.6498 19.9565 33.7154 19.6228 33.0146C19.2891 32.3471 19.1222 31.2625 19.1222 29.7608C19.1222 29.3937 19.1556 28.209 19.2224 26.2066C19.5894 18.798 19.773 13.5419 19.773 10.4383C19.773 8.80307 19.7062 7.26795 19.5728 5.83295C19.4393 4.96527 19.3725 4.11428 19.3725 3.27998C19.3725 2.67928 19.4226 2.24544 19.5227 1.97846Z" fill="#FFEED6"/>
<path d="M39.3958 22.252C39.2957 21.3844 39.0788 20.9672 38.7451 21.0006C38.2445 21.034 37.6104 21.8516 36.8428 23.4534C36.0753 25.0219 35.7249 26.1566 35.7916 26.8574C35.7916 26.9909 35.8417 27.091 35.9418 27.1577C35.9752 27.1911 36.0586 27.1911 36.1921 27.1577C36.5592 27.1244 37.0598 26.824 37.6938 26.2567C38.3279 25.6894 38.7451 25.1554 38.9453 24.6548C39.3124 23.7872 39.4626 22.9862 39.3958 22.252ZM36.3923 14.443C36.726 14.176 37.0764 14.0258 37.4435 13.9924C37.4769 13.9924 37.527 13.9924 37.5937 13.9924C38.4614 13.9924 39.8964 14.9102 41.8987 16.7456C42.8665 17.6133 43.5006 18.1973 43.8009 18.4977C44.1347 18.8314 44.435 19.2319 44.702 19.6991C44.9356 20.1329 45.0858 20.6168 45.1525 21.1508C45.2192 21.7515 45.2026 22.9195 45.1024 24.6548C45.0691 25.6226 45.0858 26.4569 45.1525 27.1577C45.2192 27.8586 45.4695 28.8263 45.9034 30.0611C46.3372 31.1624 46.5708 31.8799 46.6042 32.2136C46.6042 32.247 46.6042 32.2971 46.6042 32.3638C46.6042 32.6308 46.5041 32.9812 46.3038 33.415C45.9701 34.0825 45.4862 34.5163 44.8522 34.7165C44.752 34.7833 44.6019 34.8166 44.4016 34.8166C44.3349 34.8166 44.2681 34.8166 44.2014 34.8166C43.6341 34.8166 43.1335 34.533 42.6996 33.9657C42.1991 33.3316 41.882 32.4806 41.7485 31.4127C41.6818 30.6785 41.565 30.1612 41.3981 29.8609C41.2313 29.5939 40.9643 29.4771 40.5972 29.5105C40.1634 29.5438 39.3791 29.8609 38.2445 30.4616C36.6426 31.2291 35.4245 31.713 34.5902 31.9133C34.123 32.0468 33.856 32.1135 33.7893 32.1135C33.3221 32.1469 32.6713 31.8132 31.837 31.1123C30.936 30.3114 30.4688 29.7441 30.4354 29.4104C30.4354 29.4104 30.4354 29.3937 30.4354 29.3603C30.4354 28.793 31.3198 26.2734 33.0885 21.8015C34.9239 17.1962 36.0252 14.7433 36.3923 14.443Z" fill="#FFEED6"/>
<path d="M53.1118 13.3417C53.7458 12.741 54.2798 12.4406 54.7136 12.4406C55.1141 12.4406 55.7482 12.5574 56.6158 12.791C57.7171 13.058 58.5848 13.4752 59.2189 14.0425C59.8529 14.6432 60.17 15.2439 60.17 15.8446C60.17 16.3452 59.9364 16.7456 59.4692 17.046C59.0019 17.3797 58.3345 17.5466 57.4668 17.5466C56.6325 17.5466 56.0819 17.6467 55.8149 17.8469C55.4478 18.0471 54.9806 18.9315 54.4133 20.5C53.8126 22.0351 53.362 23.4868 53.0617 24.8551C52.8615 25.7561 52.7613 26.4236 52.7613 26.8574C52.7613 27.7251 53.2619 28.4259 54.2631 28.9598C54.6636 29.2268 55.064 29.3603 55.4645 29.3603C56.2988 29.3603 57.3 28.8764 58.468 27.9086C59.4024 27.1411 60.17 26.7573 60.7707 26.7573C61.3046 26.7573 61.7885 27.0743 62.2224 27.7084C62.456 28.0421 62.5728 28.3425 62.5728 28.6094C62.5728 28.8764 62.3225 29.4437 61.8219 30.3114C60.487 32.7476 58.518 33.9657 55.915 33.9657C55.8816 33.9657 55.8316 33.9657 55.7648 33.9657C54.5968 33.9657 53.579 33.7654 52.7113 33.365C51.8436 32.9979 50.8591 32.3137 49.7579 31.3126C48.156 29.9109 47.3551 28.6428 47.3551 27.5081C47.3551 27.2412 47.3717 27.0409 47.4051 26.9074C47.7055 25.5392 48.6232 23.053 50.1583 19.4488C51.6601 15.8446 52.6445 13.8089 53.1118 13.3417Z" fill="#FFEED6"/>
<path d="M68.3795 11.3393C68.9135 17.0126 69.1804 20.0662 69.1804 20.5C69.2138 20.5334 69.2639 20.5501 69.3306 20.5501C69.6977 20.5501 70.4152 20.0328 71.4831 18.9983C72.5177 17.9971 73.4688 16.8791 74.3364 15.6444C75.371 14.0759 76.1385 13.0914 76.6391 12.6909C76.9061 12.4907 77.2231 12.3906 77.5902 12.3906C78.4245 12.3906 79.0753 12.6909 79.5425 13.2916C79.8762 13.7255 80.0431 14.1259 80.0431 14.493C80.0431 15.027 79.7594 15.6944 79.1921 16.4953C78.5914 17.2963 77.5568 18.4977 76.0885 20.0995C73.5856 22.8694 72.284 24.4045 72.1839 24.7049C72.1839 25.339 73.7524 26.4236 76.8894 27.9587C79.1921 29.0933 80.527 29.8442 80.8941 30.2113C81.2612 30.5784 81.4447 31.129 81.4447 31.8632C81.4447 32.5307 81.3112 32.9979 81.0442 33.2648C80.6771 33.5986 80.0931 33.7654 79.2922 33.7654C76.9895 33.7654 74.5867 32.9144 72.0838 31.2125C71.0159 30.4449 70.2317 30.0611 69.7311 30.0611C69.4307 30.0611 69.2806 30.4282 69.2806 31.1624C69.2806 31.7965 69.4641 33.6486 69.8312 36.7189C69.8979 37.1861 69.9313 37.4864 69.9313 37.6199C69.9313 38.1872 69.6477 38.7712 69.0803 39.3719C68.4796 40.0394 67.7955 40.3731 67.0279 40.3731C66.4272 40.3731 65.8265 40.0894 65.2258 39.5221C64.8921 39.1884 64.6752 38.6378 64.5751 37.8702C64.5083 37.1026 64.475 35.2171 64.475 32.2136C64.475 24.7716 64.3081 18.9649 63.9744 14.7934C63.9076 12.3238 63.8576 10.138 63.8242 8.23574C63.8242 6.93423 63.8242 5.78289 63.8242 4.78172C63.8242 4.31451 63.8242 3.88068 63.8242 3.48021C63.891 2.47905 64.4082 1.89503 65.376 1.72817C65.5095 1.72817 65.6263 1.72817 65.7264 1.72817C66.5607 1.72817 67.1781 2.21207 67.5786 3.17986C67.9457 4.08091 68.1292 5.28231 68.1292 6.78405C68.1626 8.25243 68.246 9.77086 68.3795 11.3393Z" fill="#FFEED6"/>
<path d="M94.56 26.1065C93.6923 25.7394 92.5743 25.5559 91.2061 25.5559C90.4385 25.5559 89.9713 25.656 89.8044 25.8562C89.6042 26.0231 89.5041 26.5237 89.5041 27.358C89.5041 28.3925 89.6209 29.5272 89.8545 30.7619C90.0547 31.9967 90.2883 32.7476 90.5553 33.0146C90.6554 33.1147 90.7889 33.1647 90.9558 33.1647C91.4563 33.1647 92.1405 32.8644 93.0081 32.2637C93.8758 31.6296 94.5099 30.9789 94.9104 30.3114C95.5444 29.1768 95.8615 28.3091 95.8615 27.7084C95.8615 27.0409 95.4276 26.507 94.56 26.1065ZM92.5076 8.38591C91.3062 7.41812 90.4218 6.88417 89.8545 6.78405C89.6209 6.71731 89.2705 6.63388 88.8033 6.53376C88.8033 7.03434 88.8033 8.05219 88.8033 9.58731C88.8033 15.027 89.137 17.7468 89.8044 17.7468C90.1048 17.7468 90.7055 17.2128 91.6065 16.1449C92.5076 15.0437 93.1917 14.0592 93.6589 13.1915C94.0927 12.4239 94.3097 11.7565 94.3097 11.1892C94.3097 10.3215 93.709 9.38708 92.5076 8.38591ZM84.3981 1.47788C84.8987 0.910555 85.5161 0.626892 86.2503 0.626892C87.5184 0.626892 89.9713 1.8116 93.6088 4.18102C96.045 5.78289 97.6802 6.95091 98.5145 7.6851C99.3489 8.45266 99.766 9.18685 99.766 9.88766C99.766 10.188 99.6826 10.6052 99.5157 11.1391C99.2154 12.0068 98.5646 13.2582 97.5634 14.8935C96.5289 16.5621 95.5611 17.9137 94.6601 18.9482C93.8258 19.9494 93.4086 20.6168 93.4086 20.9505C93.4086 21.0173 93.4253 21.0673 93.4587 21.1007C93.5922 21.2342 94.4265 21.5179 95.9616 21.9517C97.2965 22.2854 98.2976 22.6692 98.9651 23.103C99.6325 23.5702 100.333 24.2877 101.068 25.2555C101.768 26.2901 102.119 27.2912 102.119 28.259C102.119 30.1946 100.484 32.2971 97.213 34.5664C95.9449 35.4007 93.9092 36.4686 91.1059 37.7701C88.3027 39.0382 86.6007 39.6723 86 39.6723C84.8987 39.6723 84.3481 39.0716 84.3481 37.8702C84.3481 37.2361 84.5316 36.6021 84.8987 35.968C85.2658 35.3339 85.4494 33.5986 85.4494 30.7619C85.4494 30.5951 85.4494 30.3448 85.4494 30.0111C85.4494 26.1399 85.2992 21.6347 84.9988 16.4953C84.6985 11.3894 84.4148 8.18568 84.1478 6.88417C83.8141 5.31568 83.6473 4.16434 83.6473 3.43015C83.6473 2.69596 83.8976 2.04521 84.3981 1.47788Z" fill="#FFEED6"/>
<path d="M113.031 14.9936C112.764 14.7266 112.564 14.5931 112.431 14.5931C112.331 14.5931 111.68 14.9435 110.478 15.6444C109.11 16.5454 108.426 17.3463 108.426 18.0471C108.426 18.3141 108.526 18.5978 108.726 18.8981C108.993 19.1651 109.461 19.2986 110.128 19.2986C111.263 19.2986 112.147 18.9983 112.781 18.3976C113.248 17.9971 113.482 17.313 113.482 16.3452C113.482 15.7445 113.332 15.2939 113.031 14.9936ZM108.176 11.6898C110.145 10.6552 111.613 10.138 112.581 10.138C113.482 10.138 114.333 10.5551 115.134 11.3894C115.801 12.1236 116.352 13.0747 116.786 14.2427C117.22 15.4441 117.437 16.5788 117.437 17.6467C117.437 18.0138 117.42 18.2808 117.386 18.4476C117.153 20.1162 116.569 21.2842 115.634 21.9517C114.733 22.6525 113.015 23.1865 110.478 23.5536C109.644 23.4534 109.043 23.3199 108.676 23.1531C108.309 23.0196 107.925 22.786 107.525 22.4523C107.258 23.3199 107.141 24.3879 107.175 25.656C107.208 26.9241 107.625 27.9587 108.426 28.7596C108.827 29.2268 109.244 29.5605 109.678 29.7608C110.111 29.9944 110.562 30.1112 111.029 30.1112C112.598 30.1112 114.016 29.4437 115.284 28.1088C115.951 27.4748 116.536 27.1577 117.036 27.1577C117.47 27.1577 117.92 27.408 118.388 27.9086C118.821 28.4092 119.038 28.9098 119.038 29.4104C119.038 29.9443 118.638 30.5951 117.837 31.3626C117.036 32.1302 116.052 32.7976 114.884 33.365C113.382 34.1325 111.83 34.5163 110.228 34.5163C109.127 34.5163 108.359 34.4496 107.925 34.3161C107.492 34.216 106.958 33.8989 106.324 33.365C104.221 31.663 103.07 29.0933 102.87 25.656C102.87 25.5559 102.87 25.3723 102.87 25.1054C102.836 24.8384 102.82 24.6381 102.82 24.5047C102.82 22.6024 103.003 20.5501 103.37 18.3475C103.737 16.1783 104.121 14.7934 104.522 14.1927C104.889 13.6587 106.107 12.8244 108.176 11.6898Z" fill="#FFEED6"/>
<path d="M129.15 22.252C129.05 21.3844 128.833 20.9672 128.499 21.0006C127.999 21.034 127.365 21.8516 126.597 23.4534C125.83 25.0219 125.479 26.1566 125.546 26.8574C125.546 26.9909 125.596 27.091 125.696 27.1577C125.73 27.1911 125.813 27.1911 125.946 27.1577C126.314 27.1244 126.814 26.824 127.448 26.2567C128.082 25.6894 128.499 25.1554 128.7 24.6548C129.067 23.7872 129.217 22.9862 129.15 22.252ZM126.147 14.443C126.48 14.176 126.831 14.0258 127.198 13.9924C127.231 13.9924 127.281 13.9924 127.348 13.9924C128.216 13.9924 129.651 14.9102 131.653 16.7456C132.621 17.6133 133.255 18.1973 133.555 18.4977C133.889 18.8314 134.189 19.2319 134.456 19.6991C134.69 20.1329 134.84 20.6168 134.907 21.1508C134.974 21.7515 134.957 22.9195 134.857 24.6548C134.823 25.6226 134.84 26.4569 134.907 27.1577C134.974 27.8586 135.224 28.8263 135.658 30.0611C136.092 31.1624 136.325 31.8799 136.359 32.2136C136.359 32.247 136.359 32.2971 136.359 32.3638C136.359 32.6308 136.258 32.9812 136.058 33.415C135.724 34.0825 135.241 34.5163 134.607 34.7165C134.506 34.7833 134.356 34.8166 134.156 34.8166C134.089 34.8166 134.023 34.8166 133.956 34.8166C133.388 34.8166 132.888 34.533 132.454 33.9657C131.953 33.3316 131.636 32.4806 131.503 31.4127C131.436 30.6785 131.319 30.1612 131.152 29.8609C130.986 29.5939 130.719 29.4771 130.352 29.5105C129.918 29.5438 129.133 29.8609 127.999 30.4616C126.397 31.2291 125.179 31.713 124.345 31.9133C123.877 32.0468 123.61 32.1135 123.544 32.1135C123.076 32.1469 122.426 31.8132 121.591 31.1123C120.69 30.3114 120.223 29.7441 120.19 29.4104C120.19 29.4104 120.19 29.3937 120.19 29.3603C120.19 28.793 121.074 26.2734 122.843 21.8015C124.678 17.1962 125.78 14.7433 126.147 14.443Z" fill="#FFEED6"/>
<path d="M137.51 15.6944C137.677 15.3273 138.044 15.1438 138.611 15.1438C138.645 15.1438 138.695 15.1438 138.761 15.1438C139.596 15.2105 140.23 15.5109 140.664 16.0448C141.131 16.6121 141.448 18.0972 141.615 20.5C141.782 23.103 141.948 24.4045 142.115 24.4045C142.382 24.4379 143.283 23.4034 144.818 21.3009C146.42 19.0984 147.455 17.897 147.922 17.6967C148.289 17.5966 148.639 17.5466 148.973 17.5466C149.774 17.6133 150.475 18.0305 151.076 18.798C151.61 19.5656 152.611 21.6513 154.079 25.0553C155.514 28.4259 156.232 30.3615 156.232 30.862C156.232 30.8954 156.232 30.9121 156.232 30.9121C156.198 31.3459 155.931 31.8132 155.431 32.3137C154.93 32.8143 154.496 33.0646 154.129 33.0646C153.128 32.9645 151.927 31.2792 150.525 28.0087C149.49 25.6059 148.823 24.3545 148.523 24.2544C148.523 24.2544 148.506 24.2544 148.473 24.2544C148.139 24.2544 147.555 24.8384 146.721 26.0064C145.92 27.2078 145.119 28.6261 144.318 30.2614C143.383 32.2303 142.716 33.4317 142.315 33.8655C141.948 34.2994 141.481 34.5163 140.914 34.5163C140.847 34.5163 140.78 34.5163 140.714 34.5163C139.879 34.4829 139.178 34.1325 138.611 33.4651C138.244 32.9979 138.01 32.4806 137.91 31.9133C137.81 31.3126 137.777 29.9276 137.81 27.7584C137.844 25.122 137.743 22.4356 137.51 19.6991C137.41 18.798 137.36 17.9637 137.36 17.1962C137.36 16.8958 137.376 16.6121 137.41 16.3452C137.443 15.9781 137.477 15.7612 137.51 15.6944Z" fill="#FFEED6"/>
<path d="M161.538 9.38708C162.205 8.98661 162.806 8.78638 163.34 8.78638C163.874 8.78638 164.408 8.98661 164.942 9.38708C165.509 9.7208 165.793 10.138 165.793 10.6385C165.793 11.306 165.326 11.9234 164.391 12.4907C162.489 13.6253 161.538 14.493 161.538 15.0937C161.538 15.1271 161.555 15.1438 161.588 15.1438C161.588 15.1771 161.588 15.2105 161.588 15.2439C161.688 15.5109 162.806 16.3452 164.942 17.7468C168.412 19.916 170.582 21.9851 171.449 23.954C171.816 24.8551 172 25.8896 172 27.0576C172 28.5927 171.633 30.0611 170.899 31.4627C170.165 32.8644 169.197 33.8655 167.995 34.4662C166.56 35.2672 164.958 35.6676 163.19 35.6676C162.956 35.6676 162.672 35.6343 162.339 35.5675C161.104 35.3005 159.986 34.4662 158.985 33.0646C157.984 31.6964 157.483 30.3448 157.483 29.0099C157.483 28.5761 157.516 28.259 157.583 28.0588C157.817 27.3246 158.267 26.4402 158.935 25.4057C159.636 24.3712 160.253 23.687 160.787 23.3533C161.354 22.9862 161.938 22.8027 162.539 22.8027C163.106 22.8027 163.59 22.9695 163.991 23.3033C164.358 23.637 164.541 24.0875 164.541 24.6548C164.541 24.8551 164.525 25.0052 164.491 25.1054C164.358 25.8729 164.057 26.5737 163.59 27.2078C163.023 27.9754 162.739 28.7596 162.739 29.5605C162.739 30.1279 162.889 30.5951 163.19 30.9622C163.49 31.2959 163.891 31.4627 164.391 31.4627C164.691 31.4627 164.992 31.4127 165.292 31.3126C165.926 31.079 166.46 30.5951 166.894 29.8609C167.295 29.1267 167.495 28.3258 167.495 27.4581C167.495 27.358 167.495 27.2078 167.495 27.0076C167.361 25.8395 166.911 24.8384 166.143 24.0041C165.376 23.2031 163.891 22.1352 161.688 20.8004C159.519 19.4988 158.05 18.4643 157.283 17.6967C156.515 16.9626 156.132 16.195 156.132 15.3941C156.132 14.5931 156.682 13.5753 157.783 12.3405C158.918 11.1057 160.17 10.1213 161.538 9.38708Z" fill="#FFEED6"/>
</svg>
